Coordinates
version=1
nRows=8
nColumns=63
inDegrees=yes

Units are S.I. units (second, meters, Newtons, ...)
If the header above contains a line with 'inDegrees', this indicates whether rotational values are in degrees (yes) or radians (no).

endheader
time	pelvis_tilt	pelvis_list	pelvis_rotation	pelvis_tx	pelvis_ty	pelvis_tz	hip_flexion_r	hip_adduction_r	hip_rotation_r	knee_angle_r	knee_angle_r_beta	ankle_angle_r	subtalar_angle_r	mtp_angle_r	hip_flexion_l	hip_adduction_l	hip_rotation_l	knee_angle_l	knee_angle_l_beta	ankle_angle_l	subtalar_angle_l	mtp_angle_l	L5_S1_Flex_Ext	L5_S1_Lat_Bending	L5_S1_axial_rotation	L4_L5_Flex_Ext	L4_L5_Lat_Bending	L4_L5_axial_rotation	L3_L4_Flex_Ext	L3_L4_Lat_Bending	L3_L4_axial_rotation	L2_L3_Flex_Ext	L2_L3_Lat_Bending	L2_L3_axial_rotation	L1_L2_Flex_Ext	L1_L2_Lat_Bending	L1_L2_axial_rotation	L1_T12_Flex_Ext	L1_T12_Lat_Bending	L1_T12_axial_rotation	Abs_r3	Abs_r2	Abs_r1	Abs_t1	Abs_t2	neck_flexion	neck_bending	neck_rotation	arm_flex_r	arm_add_r	arm_rot_r	elbow_flex_r	pro_sup_r	wrist_flex_r	wrist_dev_r	arm_flex_l	arm_add_l	arm_rot_l	elbow_flex_l	pro_sup_l	wrist_flex_l	wrist_dev_l
      0.00000000	      1.53523664	     -2.59033388	     96.61460152	      0.18224675	      0.94624326	      0.54036900	      0.99074568	      0.19259559	    -13.58759392	      1.45705933	      0.02543048	     20.10757765	      4.26927028	      0.00000000	      2.24306645	     -3.17897500	     13.04739762	      0.82215914	      0.01434938	      9.44851752	    -13.76711102	      0.00000000	      0.46451423	      0.52538975	     -1.45181732	      0.86264937	      0.69876837	     -1.54255590	      0.76315043	      1.27743265	     -1.54255590	      0.53089331	      1.27743265	     -1.27034016	      0.43134791	      1.07137479	     -1.17960157	      0.26542343	      0.81382873	     -1.08886299	      3.31797868	      5.94331399	     -8.07457240	      0.00000000	      0.00000000	     28.12505228	      3.38879392	      6.39833487	     14.17158181	     -4.42516110	     73.14441576	     29.09334166	     48.02511284	     -5.98744243	      1.61637330	     17.75129049	     -1.41799344	     70.27514347	     30.06866036	     33.42606246	     -1.13303012	     -5.62361114
      0.01694915	      1.42169714	     -2.89672856	     96.77773460	      0.18266210	      0.94536998	      0.54129017	      1.18253373	      0.06968806	    -15.08802308	      1.60092751	      0.02794146	     18.75365010	      3.69920147	      0.00000000	      2.71405637	     -3.00681827	     12.55002772	      1.16612252	      0.02035268	      8.98526152	    -13.32882303	      0.00000000	      0.50013408	      0.50121098	     -1.54575395	      0.92879899	      0.66661060	     -1.64236357	      0.82167027	      1.21864438	     -1.64236357	      0.57160324	      1.21864438	     -1.35253470	      0.46442450	      1.02206943	     -1.25592508	      0.28577661	      0.77637581	     -1.15931546	      3.57240769	      5.66979884	     -8.59701973	      0.00000000	      0.00000000	     28.14967663	      3.36279698	      5.68464733	     14.14983351	     -4.42822793	     73.48228295	     29.47736140	     48.63043136	     -6.75975334	      0.22822987	     17.38570801	     -1.74299443	     69.82204617	     30.26854271	     32.61958120	     -0.54406008	     -5.45192261
      0.03389831	      1.35698678	     -2.96738823	     97.06117922	      0.18279638	      0.94496038	      0.54228399	      1.17975763	      0.01419408	    -16.69864981	      1.71017099	      0.02984811	     17.79238544	      3.91346241	      0.00000000	      3.07529010	     -2.90102425	     11.71970153	      1.65846622	      0.02894570	      9.28814525	    -11.97119273	      0.00000000	      0.49948581	      0.48237273	     -1.62511699	      0.92759510	      0.64155573	     -1.72668680	      0.82060524	      1.17284105	     -1.72668680	      0.57086234	      1.17284105	     -1.42197736	      0.46382253	      0.98365447	     -1.32040755	      0.28540619	      0.74719536	     -1.21883774	      3.56777721	      5.45669679	     -9.03841315	      0.00000000	      0.00000000	     28.16481311	      3.02669806	      4.61584817	     14.57156871	     -4.38113693	     75.13638564	     29.47883638	     50.85164644	     -8.20293259	     -1.45752954	     17.40563966	     -1.96867847	     69.96250899	     30.35850400	     31.62697048	     -0.01079188	     -4.94678432
      0.05084746	      1.31532043	     -3.08674174	     97.08105364	      0.18310507	      0.94469446	      0.54326154	      1.38819155	     -0.09114696	    -19.18678648	      1.99372835	      0.03479712	     17.50879798	      6.44928325	      0.00000000	      3.53850403	     -2.83859499	      9.84233176	      2.24790515	      0.03923335	     10.27471627	     -9.25511954	      0.00000000	      0.50616508	      0.47033096	     -1.60434428	      0.93999917	      0.62554018	     -1.70461580	      0.83157861	      1.14356270	     -1.70461580	      0.57849607	      1.14356270	     -1.40380125	      0.47002489	      0.95909889	     -1.30352973	      0.28922273	      0.72854266	     -1.20325821	      3.61548655	      5.32047789	     -8.92288159	      0.00000000	      0.00000000	     28.17637317	      2.90075122	      4.05319898	     14.39612171	     -4.39242717	     72.88888209	     29.64155594	     62.33585320	     -9.79922049	     -0.86984736	     17.86111987	     -2.00801018	     71.81779988	     30.22374904	     29.38734646	      0.03670570	     -5.25417556
      0.06779661	      1.24352544	     -3.13495181	     97.12865619	      0.18347075	      0.94462035	      0.54384992	      1.44378610	     -0.13244823	    -19.40450805	      2.04917722	      0.03576489	     17.07784219	      6.37342522	      0.00000000	      3.96346709	     -2.81989691	      6.96781214	      2.90568402	      0.05071375	     11.78624319	     -4.78661098	      0.00000000	      0.50669456	      0.45312059	     -1.58408082	      0.94098247	      0.60265038	     -1.68308587	      0.83244849	      1.10171739	     -1.68308587	      0.57910121	      1.10171739	     -1.38607072	      0.47051657	      0.92400350	     -1.28706567	      0.28952527	      0.70188379	     -1.18806062	      3.61926857	      5.12579069	     -8.81018230	      0.00000000	      0.00000000	     28.18107800	      2.66313167	      3.46932176	     14.47614395	     -4.31875940	     73.24108868	     29.55022107	     60.87046505	     -9.83741729	     -1.45473017	     17.88630312	     -2.01428512	     71.29232502	     30.15788274	     30.12510525	      0.27661210	     -4.49999429
      0.08474576	      1.21957532	     -3.09645461	     97.36166405	      0.18350953	      0.94468173	      0.54423145	      1.37722751	     -0.10788853	    -19.59610026	      2.01920956	      0.03524186	     16.82630274	      6.37801171	      0.00000000	      4.25284143	     -2.80654557	      6.32235335	      3.43322923	      0.05992115	     12.65896819	     -3.38896796	      0.00000000	      0.49973985	      0.44036676	     -1.56992548	      0.92806688	      0.58568779	     -1.66804582	      0.82102260	      1.07070773	     -1.66804582	      0.57115268	      1.07070773	     -1.37368479	      0.46405843	      0.89799589	     -1.27556445	      0.28555135	      0.68212811	     -1.17744411	      3.56959180	      4.98151682	     -8.73145452	      0.00000000	      0.00000000	     28.18333041	      2.36411500	      2.81552847	     14.27505471	     -4.32513137	     72.27233779	     29.72092682	     59.40791262	     -9.48690155	     -1.18066970	     18.04826904	     -1.94907818	     71.31777081	     30.08273465	     30.24082123	      0.27085277	     -3.92296840
      0.10169492	      1.16803676	     -3.04388107	     97.51856546	      0.18359944	      0.94483528	      0.54435818	      1.31302356	     -0.11875113	    -19.76733174	      2.00064347	      0.03491782	     16.72023047	      6.52664333	      0.00000000	      4.45446706	     -2.77460190	      5.76385666	      3.86430798	      0.06744490	     13.31597232	     -2.24721152	      0.00000000	      0.49318747	      0.42308748	     -1.51062932	      0.91589845	      0.56270635	     -1.60504365	      0.81025770	      1.02869489	     -1.60504365	      0.56366396	      1.02869489	     -1.32180065	      0.45797389	      0.86275999	     -1.22738632	      0.28180732	      0.65536250	     -1.13297199	      3.52278879	      4.78605017	     -8.40166706	      0.00000000	      0.00000000	     28.17998630	      1.91208376	      1.94513601	     13.63181161	     -4.38930484	     70.00208403	     30.07510747	     55.20669800	     -8.21711506	     -0.54811240	     18.39992501	     -1.79206407	     72.25593694	     29.82708021	     29.70845424	      0.27252803	     -3.60853883
      0.11864407	      1.09657697	     -2.91691354	     97.28756827	      0.18400207	      0.94522027	      0.54436259	      1.32872660	     -0.23260923	    -20.75337552	      2.28047948	      0.03980188	     16.91089188	      8.32898868	      0.00000000	      4.35183454	     -2.71279366	      6.15922599	      3.99600497	      0.06974344	     13.18685343	     -3.22971095	      0.00000000	      0.47489537	      0.40944349	     -1.37485379	      0.88192819	      0.54455984	     -1.46078215	      0.78020560	      0.99552091	     -1.46078215	      0.54275792	      0.99552091	     -1.20299707	      0.44098784	      0.83493717	     -1.11706870	      0.27135521	      0.63422797	     -1.03114034	      3.39213013	      4.63170667	     -7.64652433	      0.00000000	      0.00000000	     28.16688556	      1.48250866	      1.36349266	     13.43749349	     -4.58677400	     70.90156808	     30.55027294	     38.95436470	     -6.26730625	     -0.62987931	     19.34478203	     -1.61214218	     76.31891015	     29.48262307	     25.41390841	      0.00816829	     -4.31617431
